Coordinates
version=1
nRows=10
nColumns=33
inDegrees=yes

Units are S.I. units (second, meters, Newtons, ...)
Angles are in degrees.

endheader
time	ground_thorax_rot_x	ground_thorax_rot_y	ground_thorax_rot_z	ground_thorax_tx	ground_thorax_ty	ground_thorax_tz	clav_prot_r	clav_elev_r	scapula_abduction_r	scapula_elevation_r	scapula_upward_rot_r	scapula_winging_r	shoulder_elv_r	plane_of_elev_r	axial_rot_r	elbow_flexion_r	pro_sup_r	wrist_flex_r	wrist_dev_r	clav_prot_l	clav_elev_l	scapula_abduction_l	scapula_elevation_l	scapula_upward_rot_l	scapula_winging_l	shoulder_elv_l	plane_of_elev_l	axial_rot_l	elbow_flexion_l	pro_sup_l	wrist_flex_l	wrist_dev_l
      1.73000000	      2.15758235	     -1.46588930	     -8.79174117	     -0.08197987	      1.04693004	      0.00674454	    -13.20206159	     -5.23463441	    -11.93748752	     -0.68590295	     10.11098701	     -1.29243917	     62.39503475	    -46.85972679	     68.43431031	     74.05421709	     12.28434672	     16.90969081	     14.09835247	     -6.45501206	     -3.67704816	      4.82088844	     -4.36335286	     -2.85464489	     -0.56027113	     61.70838216	    -55.58690059	    -49.00416688	     70.18277073	     10.52028697	      1.09355335	    -24.99999983
      1.74000000	      2.07862923	     -1.59170963	     -8.48908226	     -0.08215485	      1.04691077	      0.00685898	    -13.09471058	     -4.75929096	    -11.64069722	     -0.39279573	     10.52323737	     -1.56000589	     62.97661099	    -46.59550282	     69.04589558	     75.47931330	     12.09180360	     16.82505751	     14.75420608	     -6.38496922	     -3.26095319	      4.66916662	     -4.62787250	     -2.54644421	     -0.37672420	     62.23644033	    -55.89631424	    -49.39645062	     71.40276883	      9.61456032	      1.34213916	    -24.99999983
      1.75000000	      2.23824209	     -1.69657418	     -8.57658263	     -0.08186919	      1.04724548	      0.00692350	    -13.14660890	     -4.61051199	    -11.49543315	     -0.42364446	     11.02130793	     -1.72607460	     64.04082756	    -46.33419463	     69.51848429	     77.23376964	     11.55074705	     16.01602517	     16.11260961	     -6.47582034	     -3.43331174	      4.67393018	     -4.35488477	     -2.23712764	     -0.36367471	     62.87109434	    -56.22611680	    -49.82898458	     72.60781850	      7.27734654	      1.93793265	    -24.99999983
      1.76000000	      2.14678044	     -1.68919585	     -8.82420401	     -0.08169811	      1.04727937	      0.00691235	    -13.14634401	     -4.39819319	    -11.32588138	     -0.36432991	     11.42293984	     -1.89189521	     64.22594392	    -46.02976391	     69.36215307	     78.42957517	     11.38388717	     16.28697874	     16.07409214	     -6.47171127	     -3.17482713	      4.56605495	     -4.43744770	     -1.82681473	     -0.21248930	     63.18091459	    -56.01046312	    -49.67679040	     73.76445239	      7.06853272	      1.87986956	    -24.99999983
      1.77000000	      2.26095729	     -1.77682789	     -8.87400982	     -0.08150132	      1.04764726	      0.00690917	    -13.14656771	     -4.38792651	    -11.27639939	     -0.38626800	     11.51806004	     -1.92000981	     65.39270462	    -45.60236739	     69.46674277	     80.07477098	     10.07890156	     15.23557795	     17.51650885	     -6.52868406	     -3.32667840	      4.60749864	     -4.27333074	     -1.75909107	     -0.24255693	     63.89380217	    -56.08593582	    -50.09049684	     74.94032428	      3.10132686	      2.77649753	    -24.99999983
      1.78000000	      2.16843681	     -1.75320517	     -8.92532551	     -0.08120671	      1.04766315	      0.00687062	    -13.17590215	     -4.15452989	    -11.16193650	     -0.30877966	     11.92016234	     -2.08699649	     65.58801778	    -45.34389367	     69.31744119	     81.19201260	      9.91207387	     15.50731431	     17.48151850	     -6.56281618	     -3.06816001	      4.56887151	     -4.35878749	     -1.35738061	     -0.10997344	     64.15333854	    -55.89496010	    -49.88975684	     76.09416280	      2.91924650	      2.71731296	    -24.99999983
      1.79000000	      2.10968448	     -1.74521363	     -8.96273674	     -0.08100627	      1.04772859	      0.00680639	    -13.18766320	     -3.95231959	    -11.00670046	     -0.25857266	     12.32372890	     -2.25054846	     65.81250857	    -45.05749478	     69.15452428	     82.28660604	      9.73004165	     15.71429810	     17.51958188	     -6.58264962	     -2.87817739	      4.50003420	     -4.39457461	     -0.98898395	      0.01304090	     64.35347529	    -55.66006508	    -49.68641959	     77.21799246	      2.67852416	      2.67824327	    -24.99999983
      1.80000000	      2.16923585	     -1.84022346	     -8.83251855	     -0.08108880	      1.04790177	      0.00675633	    -12.99678661	     -3.83863669	    -10.76311029	     -0.11523858	     12.21376008	     -2.28354225	     66.68814206	    -44.63861065	     68.79553315	     83.71442594	      7.83495932	     14.46057515	     19.22157884	     -6.47576378	     -2.85656494	      4.35095438	     -4.45153957	     -1.08452879	      0.03169224	     64.49475435	    -55.50862165	    -49.36272181	     78.10867356	     -1.53064968	      3.55940388	    -24.99999983
      1.81000000	      2.14307343	     -1.79239929	     -8.87097084	     -0.08070489	      1.04803682	      0.00671868	    -13.06406974	     -3.72865451	    -10.68350434	     -0.14735103	     12.61304089	     -2.40891145	     66.88124812	    -44.39633171	     68.49646055	     84.69132288	      7.63941469	     14.69160979	     19.15737827	     -6.53761796	     -2.82303198	      4.32425978	     -4.34867694	     -0.72552141	      0.10838568	     64.60764975	    -55.15880014	    -49.08649786	     79.03992371	     -1.73280426	      3.50005685	    -24.99999983
      1.82000000	      2.30516279	     -1.93643720	     -8.96822067	     -0.08048154	      1.04817784	      0.00662771	    -12.97895608	     -3.58346811	    -10.47043670	     -0.07177874	     12.79097437	     -2.50934402	     67.39052198	    -43.79628317	     68.08818230	     85.73894716	      6.23357899	     14.24757400	     19.86803597	     -6.60213444	     -2.93586165	      4.41396402	     -4.24439342	     -0.72305177	      0.06121174	     64.15981780	    -54.62406116	    -48.12193753	     79.60539438	     -4.31884053	      3.68790368	    -24.99999983
